<?xml version="1.0" encoding="UTF-8"?>
<svg width="800" height="340" viewBox="0 0 800 340" fill="none" xmlns="http://www.w3.org/2000/svg">
  <rect x="0" y="0" width="800" height="340" rx="26" fill="#181926" />
  <!-- Terminal bar -->
  <rect x="0" y="0" width="800" height="32" rx="16" fill="#23283b"/>
  <circle cx="32" cy="16" r="7" fill="#F7768E" />
  <circle cx="54" cy="16" r="7" fill="#E0AF68" />
  <circle cx="76" cy="16" r="7" fill="#BB9AF7" />
  
  <text x="400" y="60" text-anchor="middle" fill="#c0caf5" font-size="30" font-family="Fira Mono, monospace" font-weight="bold">Arya's Dev Dashboard</text>
  
  <!-- ASCII style art/profile placeholder -->
  <text x="110" y="160" fill="#7aa2f7" font-size="13.5" font-family="Fira Mono, monospace" opacity="0.36">
      {   _   _      _        }
      {  | | | |    | |       }
      {  | |_| | ___| |_ __ _ }
      {  |  _  |/ _ \ __/ _` |}
      {  | | | |  __/ || (_| |}
      {  \_| |_/\___|\__\__,_|}
  </text>
  <!-- Stats -->
  <g font-family="Fira Mono, monospace" font-size="16">
    <text x="320" y="110" fill="#b4f9f8">OS:</text>
    <text x="370" y="110" fill="#f8bd96">macOS/Linux</text>
    <text x="480" y="110" fill="#b4f9f8">Editor:</text>
    <text x="555" y="110" fill="#bb9af7">VSCode/Nvim</text>
    <text x="320" y="140" fill="#b4f9f8">Shell:</text>
    <text x="395" y="140" fill="#7dc4e4">zsh/bash</text>
    <text x="480" y="140" fill="#b4f9f8">Theme:</text>
    <text x="555" y="140" fill="#fca7ea">tokyonight</text>
    <text x="320" y="170" fill="#b4f9f8">Uptime:</text>
    <text x="420" y="170" fill="#c3e88d">∞ hours coding</text>

    <text x="320" y="200" fill="#f9e2af">LANGUAGES:</text>
    <text x="447" y="200" fill="#8aadf4">Python</text>
    <text x="517" y="200" fill="#94e2d5">SQL</text>
    <text x="567" y="200" fill="#f5c2e7">Java</text>
    <text x="622" y="200" fill="#f8bd96">Spark</text>
    <text x="679" y="200" fill="#a6e3a1">More...</text>
 
    <text x="320" y="230" fill="#b4f9f8">STATS:</text>
    <text x="395" y="230" fill="#f7768e">Projects:</text>
    <text x="470" y="230" fill="#7aa2f7">15+</text>
    <text x="525" y="230" fill="#f7768e">Commits:</text>
    <text x="600" y="230" fill="#7aa2f7">2500+</text>
    <text x="667" y="230" fill="#f7768e">Stars:</text>
    <text x="720" y="230" fill="#7aa2f7">10+</text>
  </g>
  <!-- Footer tagline -->
  <text x="400" y="305" text-anchor="middle" font-size="15" fill="#494965" font-family="Fira Mono, monospace">"Eat. Sleep. Code. Repeat."</text>
</svg>
